<svg xmlns="http://www.w3.org/2000/svg" data-name="Layer 3" viewBox="0 0 24 24">
											<path d="M16.28 2.227a6.03 6.03 0 0 0-1.768.517c-.656.332-.812.47-3.136 2.793C9.372 7.54 9.104 7.823 8.871 8.18a4.967 4.967 0 0 0-.648 1.394c-.149.516-.191.822-.189 1.406.003 1.29.418 2.363 1.317 3.407.462.536 1.45 1.173 1.82 1.173a.904.904 0 0 0 .522-.192c.229-.207.288-.59.137-.89-.092-.182-.201-.267-.717-.558-.478-.269-1.043-.937-1.305-1.54-.229-.528-.268-.738-.265-1.44.003-.589.012-.667.115-.98.125-.382.246-.637.454-.96.165-.256 4.036-4.163 4.482-4.525.929-.752 2.207-.965 3.368-.562a3.561 3.561 0 0 1 2.125 2.125c.381 1.098.208 2.325-.458 3.24-.089.122-.626.69-1.193 1.262-1.056 1.064-1.156 1.192-1.156 1.48 0 .16.089.398.192.514.102.116.368.224.548.224.306 0 .436-.103 1.581-1.263 1.306-1.322 1.556-1.66 1.877-2.53.798-2.165.001-4.63-1.91-5.902-.961-.64-2.182-.95-3.288-.836m-3.693 6.252a.755.755 0 0 0-.413 1.094c.079.133.177.211.49.387.463.26.969.718 1.232 1.114.229.346.44.86.526 1.285.1.491.064 1.219-.082 1.681a3.79 3.79 0 0 1-.619 1.177c-.283.353-4.186 4.227-4.412 4.38a4.124 4.124 0 0 1-1.057.492c-.417.12-1.406.129-1.812.016-1.047-.29-1.955-1.067-2.359-2.016-.217-.511-.258-.736-.259-1.409-.001-.702.064-1.011.319-1.527.224-.454.378-.636 1.444-1.713 1.034-1.044 1.135-1.173 1.135-1.46a.918.918 0 0 0-.192-.514c-.187-.211-.586-.28-.868-.15-.225.103-2.172 2.084-2.454 2.496a4.897 4.897 0 0 0-.886 2.868c0 1.185.334 2.161 1.062 3.1.944 1.218 2.357 1.9 3.938 1.9 1.062 0 1.924-.264 2.839-.87.27-.18.745-.628 2.296-2.168 1.075-1.068 2.088-2.094 2.252-2.279a5.18 5.18 0 0 0 1.216-2.557c.064-.391.052-1.249-.022-1.666-.269-1.507-1.266-2.856-2.612-3.536-.271-.136-.524-.182-.702-.125" fill-rule="evenodd"></path>
										</svg>