<svg xmlns="http://www.w3.org/2000/svg" width="14" height="14" viewBox="0 0 14 14">
                                    <g>
                                        <path d="M12.8766 9.18937C12.0195 9.18937 11.1779 9.05531 10.3804 8.79176C9.98274 8.65617 9.53004 8.76139 9.27064 9.02571L7.69648 10.214C5.87091 9.23954 4.74639 8.11538 3.7852 6.30352L4.93856 4.77038C5.23821 4.47113 5.34569 4.03399 5.21692 3.62384C4.95223 2.82212 4.81777 1.98092 4.81777 1.12342C4.81781 0.503962 4.31385 0 3.69442 0H1.12335C0.503962 0 0 0.503962 0 1.12335C0 8.22363 5.77637 14 12.8766 14C13.496 14 14 13.496 14 12.8766V10.3127C14 9.69333 13.496 9.18937 12.8766 9.18937ZM13.2222 12.8766C13.2222 13.0673 13.0673 13.2222 12.8766 13.2222C6.20512 13.2222 0.7778 7.79484 0.7778 1.12339C0.7778 0.932747 0.932748 0.7778 1.12339 0.7778H3.69446C3.8851 0.7778 4.04005 0.932747 4.04005 1.12339C4.04005 2.06408 4.18778 2.98731 4.47678 3.86195C4.51703 3.99108 4.48436 4.12474 4.35373 4.26073L3.01692 6.03118C2.97302 6.08933 2.94633 6.15864 2.93988 6.23121C2.93344 6.30379 2.9475 6.37672 2.98046 6.4417C4.07155 8.58628 5.39735 9.91208 7.5571 11.0187C7.6885 11.0875 7.84953 11.0731 7.96879 10.983L9.77992 9.61094C9.8252 9.56579 9.88218 9.53419 9.94445 9.5197C10.0067 9.50521 10.0718 9.5084 10.1324 9.52891C11.013 9.81981 11.9363 9.96717 12.8766 9.96717C13.0673 9.96717 13.2222 10.1221 13.2222 10.3128V12.8766Z"></path>
                                    </g>
                                </svg>