<svg xmlns="http://www.w3.org/2000/svg" data-name="Layer 3" viewBox="0 0 24 24">
											<path d="M11.34 2.281C7.073 2.553 3.439 5.66 2.499 9.84a10.086 10.086 0 0 0 0 4.32 9.76 9.76 0 0 0 7.341 7.341c1.393.313 2.93.312 4.336-.003 3.289-.739 5.985-3.188 7.068-6.422a9.928 9.928 0 0 0 .257-5.236 9.76 9.76 0 0 0-7.341-7.341 10.445 10.445 0 0 0-2.82-.218m1.621 1.521a8.318 8.318 0 0 1 5.894 3.608c.543.802 1.034 1.968 1.222 2.899.124.611.163 1.019.163 1.691 0 1.332-.263 2.465-.845 3.642a8.146 8.146 0 0 1-3.753 3.753c-1.177.582-2.31.845-3.642.845a7.867 7.867 0 0 1-3.626-.836 8.266 8.266 0 0 1-4.572-6.443c-.054-.436-.054-1.486 0-1.922.195-1.582.857-3.123 1.846-4.299.337-.4.751-.811 1.168-1.159 1.084-.904 2.682-1.585 4.168-1.775.395-.051 1.579-.053 1.977-.004M11.614 7.62c-.134.08-.2.167-.345.45-.386.755-3.301 6.957-3.319 7.063a.892.892 0 0 0 .017.279c.101.448.57.699.984.526.244-.102.348-.238.612-.802l.251-.536h4.37l.237.508c.131.279.282.561.336.625a.84.84 0 0 0 .563.265c.29 0 .616-.238.699-.51.092-.305.097-.293-1.56-3.794-2.017-4.258-1.858-3.947-2.072-4.072a.771.771 0 0 0-.773-.002m1.117 3.92c.39.826.709 1.519.709 1.54 0 .026-.516.04-1.44.04-.991 0-1.44-.013-1.44-.043 0-.057 1.413-3.037 1.44-3.037.012 0 .341.675.731 1.5" fill-rule="evenodd"></path>
										</svg>