<svg xmlns="http://www.w3.org/2000/svg" width="41" height="41" viewBox="0 0 41 41" fill="none">
                                    <path fill-rule="evenodd" clip-rule="evenodd" d="M22.9644 4.42449C21.3722 2.83229 18.7881 2.83229 17.1958 4.42449C15.6036 6.01669 15.6036 8.60082 17.1958 10.1932C18.788 11.7854 21.3721 11.7854 22.9644 10.1932C24.5566 8.60096 24.5566 6.01682 22.9644 4.42449ZM35.4318 23.8122V22.2434H27.8598C27.5801 26.3121 24.1878 29.4998 20.0754 29.4998C15.9631 29.4998 12.5754 26.3123 12.2911 22.2434L4.72878 22.245V23.8137L7.52408 24.4262C7.71939 24.47 7.88344 24.6184 7.93658 24.8262C8.22876 25.9669 8.68814 27.0669 9.28814 28.0778C9.38814 28.2497 9.39283 28.47 9.27564 28.6497L7.73191 31.0622L10.7241 34.0544L13.1241 32.5184C13.2929 32.4028 13.5194 32.3903 13.7085 32.4981C14.2132 32.7981 14.7397 33.0622 15.2882 33.2903C15.8194 33.5106 16.3647 33.695 16.9163 33.8387C17.1288 33.8747 17.3085 34.0387 17.3569 34.2622L17.9694 37.0575H22.2008L22.8133 34.2622C22.857 34.0669 23.0055 33.9028 23.2086 33.8497C24.3492 33.5575 25.4492 33.0981 26.4601 32.4981C26.632 32.3981 26.8523 32.3934 27.032 32.5106L29.4445 34.0543L32.4367 31.0621L30.9008 28.6621C30.7852 28.4934 30.7727 28.2668 30.8805 28.0778C31.1805 27.5731 31.4445 27.0465 31.6727 26.4981C31.893 25.9668 32.0774 25.4215 32.2211 24.8699C32.257 24.6574 32.4211 24.4777 32.6445 24.4293L35.4398 23.8168L35.4318 23.8122ZM36.524 21.6965V24.2481C36.524 24.5168 36.3287 24.7403 36.0724 24.784L33.1927 25.4153C32.9052 26.4387 32.5005 27.4106 31.9849 28.3309L33.5896 30.8356C33.7302 31.0559 33.6943 31.3356 33.5177 31.5153L29.9051 35.128C29.7129 35.3202 29.4098 35.3405 29.1973 35.1796L26.7254 33.5952C25.802 34.1108 24.8332 34.5155 23.8098 34.803L23.1738 37.703C23.1176 37.9592 22.8942 38.1343 22.6426 38.1311H17.5346C17.2658 38.1311 17.0424 37.9358 16.9986 37.6796L16.3674 34.7999C15.3439 34.5124 14.3721 34.1077 13.4517 33.5921L10.947 35.1968C10.7267 35.3374 10.447 35.3014 10.2673 35.1249L6.65467 31.5122C6.46248 31.32 6.44217 31.0169 6.60311 30.8044L8.18747 28.3326C7.67184 27.4091 7.26717 26.4403 6.97967 25.4169L4.07967 24.781C3.82342 24.7247 3.64841 24.5013 3.65154 24.2497V21.6981C3.65154 21.3981 3.89529 21.1544 4.19527 21.1544H12.8389C13.1389 21.1544 13.3827 21.3982 13.3827 21.6981C13.3827 25.4028 16.3874 28.4105 20.095 28.4105C23.8027 28.4105 26.8073 25.4058 26.8073 21.6981C26.8073 21.3981 27.0511 21.1544 27.3511 21.1544H35.9947C36.2947 21.1544 36.5385 21.3982 36.5385 21.6981L36.524 21.6965ZM23.324 18.4528C25.1162 20.245 25.1162 23.1448 23.324 24.9371C21.5318 26.7293 18.632 26.7293 16.8396 24.9371C15.0474 23.1449 15.0474 20.2451 16.8396 18.4528C18.6318 16.6606 21.5316 16.6606 23.324 18.4528ZM20.0802 16.02C22.5599 16.02 24.7116 17.62 25.4679 19.9123C26.1242 19.7686 26.7038 19.6201 27.3476 19.4248V18.5811C27.3476 15.5452 25.4476 12.8574 22.6633 11.7891C21.068 12.7125 19.0866 12.7125 17.4913 11.7891C14.7038 12.8578 12.8069 15.5454 12.8069 18.5811V19.4248C13.4507 19.617 14.0351 19.7686 14.6866 19.9123C15.446 17.6201 17.5991 16.02 20.0743 16.02H20.0802ZM12.1116 5.95599C13.4194 7.26379 13.4194 9.37933 12.1116 10.6873C10.8038 11.9953 8.68824 11.9951 7.38024 10.6873C6.07224 9.37953 6.07244 7.26399 7.38024 5.95599C8.68804 4.64799 10.8036 4.64819 12.1116 5.95599ZM11.9319 12.184C12.5725 12.4324 13.1522 12.784 13.6678 13.2277C12.4397 14.6965 11.7163 16.5637 11.7163 18.5794V19.2435C9.00376 19.5028 6.34759 19.2278 3.71626 18.4513V17.8028C3.71626 15.2981 5.27252 13.0792 7.56459 12.1825C8.91616 12.9466 10.5802 12.9466 11.9333 12.1825L11.9319 12.184ZM32.7756 5.95599C34.0834 7.26379 34.0834 9.37933 32.7756 10.6873C31.4678 11.9953 29.3522 11.9951 28.0442 10.6873C26.7362 9.37953 26.7364 7.26399 28.0442 5.95599C29.352 4.64799 31.4676 4.64819 32.7756 5.95599ZM32.5959 12.184C34.8881 13.0793 36.4442 15.2996 36.4442 17.8043V18.4528C33.8083 19.2293 31.1565 19.5043 28.4442 19.245V18.5809C28.4442 16.5653 27.7208 14.6966 26.4926 13.2292C27.0083 12.7855 27.5926 12.4339 28.2286 12.1855C29.5801 12.9496 31.2442 12.9496 32.5972 12.1855L32.5959 12.184ZM30.4115 3.88399C32.8599 3.88399 34.8475 5.87149 34.8475 8.31999C34.8475 9.53249 34.3631 10.6278 33.5756 11.4278C35.9631 12.6231 37.532 15.0761 37.532 17.8041V18.8557C37.532 19.0869 37.3835 19.3041 37.1476 19.376C35.5992 19.8604 34.0476 20.176 32.4913 20.3276C31.0397 20.4682 29.596 20.4635 28.1506 20.3119C28.1225 20.3276 28.0912 20.3401 28.0553 20.3526C27.3069 20.5838 26.4787 20.8041 25.7069 20.976C26.1381 24.376 23.4944 27.376 20.0755 27.376C16.6552 27.376 14.0115 24.376 14.4442 20.976C14.1489 20.9119 13.8442 20.8354 13.5317 20.7557C13.0473 20.6322 12.5801 20.4994 12.127 20.3604C12.0832 20.3479 12.0395 20.3323 11.9989 20.3119C10.5551 20.4635 9.11136 20.4682 7.6582 20.3276C6.11446 20.1791 4.5707 19.8635 3.03453 19.3869C2.7939 19.3276 2.6189 19.1151 2.6189 18.8588V17.8072C2.6189 15.0838 4.18763 12.6276 6.57523 11.4309C4.87053 9.69497 4.88303 6.90723 6.60336 5.18723C8.33462 3.45597 11.144 3.45597 12.8754 5.18723C14.5957 6.90753 14.6113 9.69523 12.9035 11.4309C13.4472 11.7028 13.9519 12.0434 14.4113 12.4434C15.0269 11.8747 15.7238 11.3997 16.4831 11.0356C14.4034 9.0278 14.3706 5.70427 16.4144 3.65927C18.4347 1.63897 21.7064 1.63897 23.7267 3.65927C25.7471 5.67957 25.7424 9.03127 23.658 11.0356C24.4173 11.3997 25.1173 11.8762 25.7298 12.4434C26.1861 12.0434 26.6939 11.7028 27.2376 11.4309C25.5329 9.69497 25.5454 6.90723 27.2658 5.18723C28.0705 4.38253 29.1783 3.88723 30.4017 3.88723L30.4115 3.88399ZM21.4568 19.9247C21.6522 19.6965 21.9928 19.6653 22.2256 19.8606C22.4568 20.0559 22.4849 20.3965 22.2896 20.6293L19.8943 23.47C19.674 23.7293 19.274 23.7215 19.0584 23.4621L17.8818 22.0668C17.6865 21.8387 17.7178 21.495 17.9459 21.2981C18.174 21.1028 18.5178 21.1341 18.7146 21.3622L19.4834 22.27L21.4631 19.9215L21.4568 19.9247Z" fill="#566064"></path>
                                </svg>