<svg xmlns="http://www.w3.org/2000/svg" viewBox="0 0 701.81 701.83">
									<path fill="#FFFFFF" d="M331.08.55C190.9,8.53,70.26,97.88,20.83,230.33c-8.95,23.97-16.5,56.86-19.49,84.87-1.76,16.45-1.79,55.1-.07,71.18,8.8,81.9,43.7,155.21,101.34,212.85,57.73,57.73,132.07,93.03,213.44,101.34,16.84,1.72,54.16,1.69,70.59-.06,148.01-15.76,269.77-121.62,305.15-265.3,11.7-47.53,13.22-101.36,4.21-149.42-19.27-102.71-84.89-192.59-177.59-243.23C462.11,11.8,395.54-3.13,331.08.55ZM363.97,142.83c12.37,3.82,21.52,11.62,27.6,23.54,3.03,5.94,3.3,7.54,3.29,19.41-.01,12.48-.16,13.21-4.03,20.37-11.86,21.94-37.82,30.71-59.64,20.15-7.89-3.82-17.14-12.92-21.05-20.71-2.88-5.74-3.52-8.61-3.88-17.52-.53-13.01.78-18.23,6.86-27.33,11.17-16.72,31.5-23.89,50.84-17.91ZM239.63,230.98c56.8,8.19,67.86,9.37,95.7,10.22,36.3,1.11,59.67-.74,121.9-9.63,32.32-4.62,56.53-7.55,60.11-7.27,7.74.61,12.4,3.96,16.26,11.72,5.11,10.26,3.12,21.41-5.06,28.3-4.69,3.95-2.2,3.27-66.49,17.94-32.36,7.38-54.83,13.06-56.06,14.18-3.26,2.95-3.67,8.6-2.3,31.46,3.83,63.99,12.07,102.66,36.42,170.84,5.31,14.88,9.95,29.51,10.31,32.49,1.3,10.96-4.46,21.09-15.8,27.73-4.42,2.59-5.97,2.9-11.13,2.21-10.61-1.41-17.22-6.06-21.85-15.38-1.28-2.59-13.07-33.43-26.2-68.53-13.12-35.1-24.18-63.83-24.56-63.82-.39,0-11.27,28.17-24.19,62.6-12.92,34.43-24.93,65.63-26.68,69.34-8.74,18.47-36.45,20.12-45.98,2.74-5.48-9.99-4.95-13.08,9.64-56.7,22.94-68.59,30.75-106.34,34.2-165.25,1.57-26.79,1.21-28.53-6.51-31.25-2.59-.91-21.91-5.61-42.94-10.43-73.02-16.75-75.15-17.5-80.88-28.73-5.66-11.08-1.62-23.77,9.71-30.46,3.58-2.11,16.54-.93,62.4,5.68Z"></path>
								</svg>