<svg xmlns="http://www.w3.org/2000/svg" width="41" height="41" viewBox="0 0 41 41" fill="none">
                                    <path d="M36.5034 2.20756C36.4721 2.20912 36.4409 2.21225 36.4112 2.21693L31.4219 3.08413C31.1031 3.14038 30.889 3.4435 30.9437 3.76227C30.9703 3.91695 31.0562 4.05445 31.1843 4.14507C31.3125 4.23568 31.4703 4.27163 31.625 4.24507L34.6781 3.7138C22.5674 14.4998 4.41878 14.8795 4.41878 14.8795H4.41721C4.26253 14.881 4.11409 14.9467 4.00471 15.0576C3.8969 15.1701 3.83753 15.3217 3.84065 15.4779C3.84221 15.6341 3.90784 15.7826 4.02034 15.8904C4.13284 15.9998 4.28284 16.0576 4.43907 16.0545C4.43907 16.0545 22.9627 15.7576 35.4924 4.56079L34.7783 7.57016C34.7424 7.72328 34.769 7.88266 34.8502 8.01546C34.933 8.14827 35.0643 8.24358 35.2174 8.27796C35.369 8.31389 35.5284 8.2889 35.6611 8.20608C35.794 8.12327 35.8893 7.99202 35.9252 7.84045L37.0846 2.93412L37.083 2.93255C37.1252 2.75599 37.0846 2.57005 36.9705 2.42785C36.858 2.28723 36.6846 2.20598 36.5033 2.20754L36.5034 2.20756ZM30.7534 11.8092C30.5971 11.8092 30.4456 11.8702 30.3346 11.9811C30.2237 12.092 30.1628 12.2436 30.1628 12.3998V23.2762C30.1628 23.4324 30.2237 23.584 30.3346 23.6934C30.4456 23.8043 30.5971 23.8668 30.7534 23.8668C30.9096 23.8652 31.0581 23.8027 31.169 23.6918C31.2784 23.5824 31.3393 23.4324 31.3393 23.2762V12.9855H35.6813V24.9402C35.6813 25.0949 35.7438 25.2449 35.8548 25.3542C35.9657 25.4652 36.1157 25.5261 36.272 25.5245C36.5954 25.5245 36.8563 25.2636 36.8579 24.9402V12.3995C36.8595 12.2433 36.797 12.0933 36.6876 11.9823C36.5766 11.8714 36.4282 11.8089 36.2719 11.8089L30.7534 11.8092ZM21.977 16.4986C21.6536 16.5001 21.3927 16.7611 21.3911 17.0845V33.3672H19.3114V20.9188C19.3114 20.5954 19.0489 20.3329 18.7255 20.3329H13.2018C12.8799 20.3345 12.6174 20.5954 12.6159 20.9188V33.3672H10.5346V24.8392L10.5362 24.8407C10.5377 24.5157 10.2752 24.2501 9.95023 24.2501H4.43157C4.27375 24.2485 4.12375 24.311 4.01283 24.422C3.9019 24.5329 3.8394 24.6829 3.84096 24.8407V33.3687L1.84409 33.3671C1.52066 33.3687 1.25816 33.6296 1.25659 33.9531C1.25659 34.1093 1.31753 34.2593 1.42691 34.3703C1.53784 34.4812 1.68784 34.5437 1.84411 34.5437H23.3064C23.3314 34.5437 23.3549 34.5421 23.3783 34.5406C23.3892 34.539 23.3986 34.5375 23.408 34.5359C23.4111 34.5343 23.4127 34.5343 23.4158 34.5343C23.4299 34.5312 23.4455 34.5281 23.4596 34.5234C23.4627 34.5218 23.4658 34.5218 23.4689 34.5203C23.483 34.5171 23.4955 34.5125 23.5096 34.5078C23.5127 34.5062 23.5174 34.5046 23.5205 34.5031C23.533 34.4984 23.5439 34.4937 23.5564 34.4875C23.5611 34.4859 23.5658 34.4828 23.5689 34.4812L23.6018 34.4625C23.6033 34.4609 23.6049 34.4609 23.6064 34.4593C23.6189 34.4515 23.633 34.4437 23.6455 34.4343C23.6518 34.4296 23.658 34.425 23.6627 34.4218L23.6674 34.4171C23.6768 34.4093 23.6877 34.4015 23.6955 34.3921C23.7064 34.3843 23.7158 34.375 23.7252 34.3656C23.7314 34.3593 23.7361 34.3531 23.7424 34.3453C23.7486 34.3406 23.7533 34.3343 23.758 34.3281C23.7611 34.325 23.7627 34.3218 23.7643 34.3187C23.7736 34.3078 23.7814 34.2968 23.7908 34.2859C23.8049 34.2671 23.8174 34.2453 23.8283 34.225C23.8408 34.2 23.8518 34.175 23.8611 34.1484C23.8658 34.1359 23.8705 34.1218 23.8752 34.1093C23.8768 34.0984 23.8799 34.0875 23.8814 34.0765C23.883 34.0703 23.8846 34.064 23.8861 34.0562C23.8861 34.0546 23.8861 34.0515 23.8877 34.05C23.8908 34.0343 23.8924 34.0187 23.8939 34.0031V33.9984C23.8955 33.9812 23.8955 33.964 23.8955 33.9468C23.8955 33.8953 23.8893 33.8437 23.8768 33.7953C23.8064 33.5375 23.5721 33.3593 23.3064 33.3609H22.5674V17.6689H26.9094V24.8502C26.9109 25.1737 27.1734 25.4346 27.4953 25.4362C27.6516 25.4362 27.8016 25.3752 27.9125 25.2659C28.0235 25.1549 28.086 25.0065 28.086 24.8502V17.0782C28.086 16.922 28.0235 16.772 27.9125 16.6626C27.8016 16.5516 27.6516 16.4907 27.4953 16.4907L21.977 16.4986ZM13.7927 21.5092H18.1347V33.3672H13.7927V21.5092ZM31.8394 24.9482C27.944 24.9482 24.7737 28.1154 24.7737 32.0089C24.7737 35.9024 27.944 39.0729 31.8394 39.0729C35.7347 39.0729 38.9034 35.9026 38.9034 32.0089C38.9034 28.1152 35.7331 24.9482 31.8394 24.9482ZM5.01737 25.4264H9.36404V33.3684H5.01737V25.4264ZM31.8394 26.1264C35.0987 26.1264 37.727 28.7514 37.727 32.009C37.727 35.2684 35.0973 37.8967 31.8394 37.8967C28.58 37.8967 25.9517 35.267 25.9517 32.009C25.9517 28.7497 28.5814 26.1264 31.8394 26.1264ZM31.8394 27.7654C31.6831 27.7654 31.5316 27.8279 31.4206 27.9389C31.3097 28.0482 31.2488 28.1998 31.2488 28.3561V28.8233C30.3472 28.9545 29.6628 29.7608 29.6628 30.7014C29.6628 31.7311 30.4816 32.5998 31.5081 32.5998H32.1644C32.5331 32.5998 32.8378 32.8983 32.8378 33.3201C32.8378 33.742 32.5331 34.042 32.1644 34.042H30.2503V34.0404C30.0941 34.042 29.9441 34.1045 29.8347 34.2154C29.7253 34.3248 29.6628 34.4748 29.6644 34.6311C29.6644 34.9545 29.9269 35.2154 30.2503 35.217H31.2503V35.6639H31.2488C31.2503 35.8201 31.3128 35.9701 31.4238 36.0795C31.5347 36.1889 31.6831 36.2514 31.8394 36.2498C32.1628 36.2483 32.4238 35.9873 32.4253 35.6639V35.1967C33.3269 35.0639 34.0144 34.2592 34.0144 33.3186C34.0144 32.2889 33.191 31.4217 32.1644 31.4217H31.5081C31.1394 31.4217 30.8394 31.1232 30.8394 30.6998C30.8394 30.278 31.1394 29.9748 31.5081 29.9748H33.4238V29.9764C33.7488 29.9779 34.0128 29.7154 34.0144 29.3904C34.0144 29.2342 33.9519 29.0842 33.841 28.9748C33.73 28.8654 33.58 28.8045 33.4238 28.8045H32.4253V28.3561C32.4269 28.0311 32.1644 27.767 31.8394 27.7654Z" fill="#566064"></path>
                                </svg>