<svg xmlns="http://www.w3.org/2000/svg" data-name="Layer 3" viewBox="0 0 24 24">
											<path d="M3.699 3.816c-.149.065-.367.308-.408.455-.017.06-.031.667-.031 1.349.001 1.086.01 1.27.074 1.48A2.326 2.326 0 0 0 4.9 8.666c.229.071.554.074 7.1.074 6.546 0 6.871-.003 7.1-.074A2.326 2.326 0 0 0 20.666 7.1c.064-.21.073-.394.074-1.48 0-.682-.014-1.289-.031-1.349-.042-.152-.262-.392-.417-.457a.742.742 0 0 0-.786.139c-.243.23-.244.236-.266 1.593l-.02 1.247-.121.149a1.064 1.064 0 0 1-.259.224c-.134.071-.389.074-6.84.074s-6.706-.003-6.84-.074a1.064 1.064 0 0 1-.259-.224l-.121-.149-.02-1.247c-.022-1.357-.023-1.363-.266-1.593a.756.756 0 0 0-.795-.137m1.116 7.462c-.484.115-.717.726-.432 1.13a.939.939 0 0 0 .277.248l.16.084 7.06.011c5.04.007 7.121-.002 7.274-.034.748-.155.775-1.244.035-1.431-.211-.053-14.154-.061-14.374-.008m.365 4.003c-.852.114-1.557.722-1.831 1.579-.084.265-.089.347-.089 1.52 0 .682.014 1.289.031 1.349.042.152.262.392.417.457a.742.742 0 0 0 .786-.139c.243-.23.244-.236.266-1.593l.02-1.247.121-.149c.067-.082.183-.183.259-.224.134-.071.389-.074 6.84-.074s6.706.003 6.84.074c.076.041.192.142.259.224l.121.149.02 1.247c.022 1.357.023 1.363.266 1.593.205.194.521.25.786.139.155-.065.375-.305.417-.457.017-.06.031-.667.031-1.349-.001-1.086-.01-1.27-.074-1.48-.228-.75-.782-1.31-1.546-1.566-.21-.07-.532-.074-6.96-.079-3.707-.003-6.848.009-6.98.026" fill-rule="evenodd"></path>
										</svg>