<svg xmlns="http://www.w3.org/2000/svg" viewBox="0 0 24 24">
											<path d="M11.32 2.281a9.812 9.812 0 0 0-5.418 2.111c-.363.287-1.223 1.147-1.51 1.51-1.12 1.417-1.801 3.021-2.055 4.838-.09.647-.09 1.874.001 2.52.254 1.817.936 3.423 2.054 4.838.287.363 1.147 1.223 1.51 1.51A10.013 10.013 0 0 0 9.9 21.516c1.326.29 2.874.29 4.2 0a10.013 10.013 0 0 0 3.998-1.908c.363-.287 1.223-1.147 1.51-1.51a10.013 10.013 0 0 0 1.908-3.998c.29-1.326.29-2.874 0-4.2a10.013 10.013 0 0 0-1.908-3.998c-.287-.363-1.147-1.223-1.51-1.51a9.843 9.843 0 0 0-6.778-2.111m-.08 9.725v8.206l-.251-.024c-.761-.071-1.789-.38-2.615-.786a7.592 7.592 0 0 1-2.128-1.498 8.305 8.305 0 0 1-2.444-4.943c-.054-.436-.054-1.486 0-1.922.185-1.499.807-3.005 1.71-4.139a8.38 8.38 0 0 1 5.089-3.037c.165-.03.376-.056.469-.059l.17-.004v8.206m2.441-8.084c1.228.253 2.593.9 3.503 1.659.986.823 1.68 1.695 2.218 2.793A7.864 7.864 0 0 1 20.24 12a7.864 7.864 0 0 1-.838 3.626c-.538 1.098-1.232 1.97-2.218 2.793-1.083.904-2.829 1.644-4.173 1.769l-.251.024V3.788l.251.024c.138.013.44.062.67.11" fill-rule="evenodd"></path>
										</svg>