<svg xmlns="http://www.w3.org/2000/svg" viewBox="0 0 24 24"><path d="M7.533 2.282c-2.527.207-4.649 2.073-5.15 4.529-.124.602-.142 1.271-.142 5.189s.018 4.587.142 5.189c.445 2.183 2.245 3.983 4.428 4.428.602.124 1.271.142 5.189.142s4.587-.018 5.189-.141c2.179-.445 3.984-2.25 4.429-4.429.123-.602.141-1.271.141-5.189s-.018-4.587-.141-5.189c-.292-1.427-1.211-2.78-2.438-3.589-.858-.566-1.705-.854-2.771-.942-.546-.045-8.323-.044-8.876.002m9.487 1.583c1.616.474 2.683 1.556 3.128 3.175.067.243.072.568.072 4.96s-.005 4.717-.072 4.96c-.229.832-.597 1.484-1.15 2.038-.554.553-1.206.921-2.038 1.15-.243.067-.568.072-4.96.072s-4.717-.005-4.96-.072c-.832-.229-1.484-.597-2.038-1.15a4.422 4.422 0 0 1-1.146-2.038c-.073-.286-.076-.511-.076-4.98V7.3l.09-.326a4.39 4.39 0 0 1 1.132-1.972A4.397 4.397 0 0 1 7.4 3.786c.055-.009 2.179-.013 4.72-.01 4.531.007 4.625.009 4.9.089m-9.84 3.97a.61.61 0 0 0-.358.375c-.114.273-.039.659.164.838.224.199.036.192 5.023.191 4.427-.001 4.659-.004 4.811-.074a.61.61 0 0 0 .358-.375.74.74 0 0 0 0-.58.61.61 0 0 0-.358-.375c-.152-.07-.383-.073-4.82-.073s-4.668.003-4.82.073m.24 3.424a1.675 1.675 0 0 1-.149.038c-.147.032-.39.251-.457.411a.736.736 0 0 0 .201.842c.08.071.196.143.256.159.143.04 9.315.04 9.458 0 .152-.042.392-.262.457-.417a.742.742 0 0 0-.139-.786c-.25-.265.129-.245-4.967-.253a424.68 424.68 0 0 0-4.66.006m-.24 3.576a.61.61 0 0 0-.358.375c-.114.273-.039.659.164.838.224.199.036.192 5.023.191 4.427-.001 4.659-.004 4.811-.074a.61.61 0 0 0 .358-.375.74.74 0 0 0 0-.58.61.61 0 0 0-.358-.375c-.152-.07-.383-.073-4.82-.073s-4.668.003-4.82.073" fill-rule="evenodd"></path></svg>