<svg xmlns="http://www.w3.org/2000/svg" width="35" height="35" viewBox="0 0 60 60">
                        <path d="M29.9998 53.3346C29.6943 53.3346 29.4543 53.0946 29.4543 52.7891C29.4543 52.4836 29.6943 52.2436 29.9998 52.2436C42.2616 52.2436 52.2434 42.2618 52.2434 30C52.2434 17.7382 42.2616 7.75638 29.9998 7.75638C29.6943 7.75638 29.4543 7.51638 29.4543 7.21092C29.4543 6.90547 29.6943 6.66547 29.9998 6.66547C42.8834 6.66547 53.3343 17.1164 53.3343 30C53.3343 36.1855 50.8798 42.12 46.5053 46.4946C42.1307 50.8909 36.1962 53.3455 29.9998 53.3346Z"></path>
                        <path d="M29.9998 48.8837C29.6943 48.8837 29.4543 48.6437 29.4543 48.3382C29.4543 48.0328 29.6943 47.7928 29.9998 47.7928C39.8071 47.7928 47.7925 39.8073 47.7925 30C47.7925 20.1928 39.8071 12.2073 29.9998 12.2073C29.6943 12.2073 29.4543 11.9673 29.4543 11.6618C29.4543 11.3564 29.6943 11.1164 29.9998 11.1164C40.418 11.1164 48.8834 19.5928 48.8834 30C48.8834 40.4073 40.418 48.8837 29.9998 48.8837Z"></path>
                        <path d="M29.9998 44.4436C29.6943 44.4436 29.4543 44.2036 29.4543 43.8982C29.4543 43.5927 29.6943 43.3527 29.9998 43.3527C37.3743 43.3527 43.3525 37.3745 43.3525 30C43.3525 22.6254 37.3743 16.6582 29.9998 16.6582C29.6943 16.6582 29.4543 16.4182 29.4543 16.1127C29.4543 15.8073 29.6943 15.5673 29.9998 15.5673C37.9634 15.5673 44.4434 22.0473 44.4434 30.0109C44.4434 37.9745 37.9634 44.4436 29.9998 44.4436Z"></path>
                        <path d="M29.9999 57.7746C14.6617 57.7746 2.22534 45.3382 2.22534 30C2.22534 29.6946 2.46534 29.4546 2.7708 29.4546H20.5526C20.8581 29.4546 21.0981 29.6946 21.0981 30C21.0981 34.92 25.0908 38.9018 29.9999 38.9018C34.909 38.9018 38.9017 34.9091 38.9017 30C38.9017 25.08 34.9199 21.0982 29.9999 21.0982C29.6944 21.0982 29.4544 20.8582 29.4544 20.5527C29.4544 20.2473 29.6944 20.0073 29.9999 20.0073C35.5199 20.0073 39.9926 24.48 39.9926 30C39.9926 35.52 35.5199 39.9927 29.9999 39.9927C24.6872 39.9927 20.3126 35.8473 20.0181 30.5455H3.31625C3.6108 45.0109 15.469 56.6836 29.9999 56.6836C44.7163 56.6836 56.6835 44.7164 56.6835 30C56.6835 15.2836 44.7163 3.31637 29.9999 3.31637C29.6944 3.31637 29.4544 3.07637 29.4544 2.77092C29.4544 2.46546 29.6944 2.22546 29.9999 2.22546C45.3381 2.22546 57.7744 14.6727 57.7744 30.0109C57.7744 37.3746 54.8508 44.4436 49.6363 49.6473C44.4435 54.8618 37.3744 57.7964 29.9999 57.7746Z"></path>
                        <path d="M29.9998 35.5527C29.6943 35.5527 29.4543 35.3127 29.4543 35.0073C29.4543 34.7018 29.6943 34.4618 29.9998 34.4618C32.4653 34.4618 34.4616 32.4655 34.4616 30.0109C34.4616 27.5455 32.4653 25.5491 30.0107 25.5491C29.7053 25.5491 29.4653 25.3091 29.4653 25.0036C29.4653 24.6982 29.7053 24.4582 30.0107 24.4582C33.0762 24.4582 35.5634 26.9455 35.5634 30C35.5525 33.0655 33.0653 35.5527 29.9998 35.5527Z"></path>
                    </svg>