<svg xmlns="http://www.w3.org/2000/svg" viewBox="0 0 24 24">
											<path d="M5.74 3.266a3.841 3.841 0 0 0-2.334 1.031c-.526.494-.95 1.287-1.093 2.045-.037.194-.053.671-.053 1.578 0 1.29.001 1.301.093 1.449.357.574 1.223.443 1.363-.207.026-.123.044-.667.044-1.356 0-1.271.021-1.425.25-1.863.165-.314.619-.768.933-.933.507-.266.065-.25 7.057-.25 6.994 0 6.554-.016 7.054.25.466.249.868.708 1.073 1.224.085.214.091.298.111 1.606.022 1.356.024 1.383.115 1.529a.74.74 0 0 0 1.368-.235c.071-.342.029-2.536-.056-2.909-.334-1.469-1.393-2.529-2.89-2.894-.251-.061-.828-.068-6.575-.073a830.09 830.09 0 0 0-6.46.008m-3.925 8.01c-.486.123-.717.728-.432 1.132.219.31.309.332 1.337.332.495 0 .949-.014 1.009-.031.152-.042.392-.262.457-.417a.742.742 0 0 0-.139-.786c-.223-.235-.269-.245-1.227-.253-.484-.005-.936.006-1.005.023m4.636.001c-.177.045-.305.135-.438.309-.098.128-.113.183-.113.417 0 .242.013.285.124.423.249.308.275.314 1.363.314h.966l.172-.121c.236-.166.334-.346.334-.619s-.097-.453-.334-.619l-.172-.121-.886-.008c-.488-.004-.945.007-1.016.025m4.643-.001c-.659.166-.791 1.031-.208 1.364.172.099.186.1 1.114.1.928 0 .942-.001 1.114-.1a.737.737 0 0 0 .006-1.274c-.178-.105-.188-.106-1.04-.114-.473-.004-.917.007-.986.024m4.597.001a.88.88 0 0 0-.479.375.88.88 0 0 0-.069.348c-.002.273.094.452.332.619l.172.121h.966c1.088 0 1.114-.006 1.363-.314.112-.138.124-.181.124-.426s-.012-.288-.124-.426c-.244-.302-.287-.313-1.276-.322-.484-.004-.938.007-1.009.025m4.729-.017a2.274 2.274 0 0 1-.149.037c-.147.032-.39.251-.457.411a.742.742 0 0 0 .139.786c.218.23.278.244 1.154.259.992.017 1.196-.016 1.412-.232.399-.399.212-1.098-.33-1.235-.164-.041-1.658-.063-1.769-.026M2.815 14.277a.8.8 0 0 0-.462.354c-.089.143-.093.181-.092.949.002 1.092.093 1.531.458 2.208a3.736 3.736 0 0 0 2.623 1.899c.409.078 12.907.078 13.316 0a3.768 3.768 0 0 0 3.004-2.912c.084-.388.122-1.61.06-1.909a.74.74 0 0 0-1.369-.235c-.087.14-.094.201-.116 1.029-.021.777-.034.906-.112 1.106a2.426 2.426 0 0 1-1.071 1.224c-.5.266-.06.25-7.054.25-6.992 0-6.55.016-7.057-.25-.314-.165-.768-.619-.933-.933-.206-.394-.25-.633-.251-1.375-.001-.731-.037-.959-.179-1.146-.159-.209-.502-.325-.765-.259" fill-rule="evenodd"></path>
										</svg>