<svg xmlns="http://www.w3.org/2000/svg" data-name="Layer 3" viewBox="0 0 24 24">
											<path d="M3.815 3.278c-.484.115-.717.726-.432 1.13a.951.951 0 0 0 .277.248l.16.084 8.06.011c5.766.007 8.121-.002 8.274-.034.748-.155.775-1.244.035-1.431-.211-.053-16.153-.061-16.374-.008m7.97 4.01c-.325.088-.312.064-2.35 4.412-1.772 3.781-1.912 4.096-1.913 4.296a.706.706 0 0 0 .739.737.674.674 0 0 0 .544-.243c.052-.062.221-.386.375-.72l.28-.607 2.532-.002 2.533-.001.3.63c.165.347.34.672.388.724a.677.677 0 0 0 .526.217c.431 0 .741-.304.741-.727 0-.192-.154-.538-1.906-4.276-1.048-2.238-1.939-4.116-1.98-4.175-.164-.233-.508-.346-.809-.265m1.115 4.393c.484 1.034.886 1.898.893 1.92.009.025-.631.039-1.794.039-1.477 0-1.804-.01-1.787-.053C10.283 13.402 11.984 9.8 12 9.8c.011 0 .416.847.9 1.881m-9.085 7.597c-.484.115-.717.726-.432 1.13a.951.951 0 0 0 .277.248l.16.084 8.06.011c5.766.007 8.121-.002 8.274-.034.748-.155.775-1.244.035-1.431-.211-.053-16.153-.061-16.374-.008" fill-rule="evenodd"></path>
										</svg>