<svg xmlns="http://www.w3.org/2000/svg" data-name="Layer 3" viewBox="0 0 24 24"><path d="M11.815 2.277a.8.8 0 0 0-.462.354l-.093.149v3.44l.093.149c.357.574 1.223.443 1.363-.207.057-.268.058-3.072.001-3.321a.747.747 0 0 0-.902-.564M5.38 4.938a.75.75 0 0 0-.379 1.082c.041.066.593.635 1.227 1.265 1.087 1.082 1.163 1.148 1.343 1.186.572.119 1.019-.328.9-.9-.038-.18-.104-.256-1.186-1.343-.63-.634-1.201-1.188-1.27-1.23a.785.785 0 0 0-.635-.06m12.74-.011c-.106.03-.423.322-1.309 1.204-.643.64-1.199 1.226-1.235 1.302a.805.805 0 0 0 .029.692c.157.284.478.418.824.346.18-.038.256-.104 1.343-1.186.634-.63 1.185-1.199 1.225-1.265a.73.73 0 0 0-.112-.904c-.21-.21-.467-.274-.765-.189M2.815 11.278c-.484.115-.717.726-.432 1.13a.951.951 0 0 0 .277.248c.153.08.228.085 1.713.096 1.793.014 1.914.001 2.146-.231.399-.399.212-1.098-.33-1.235-.208-.052-3.16-.059-3.374-.008m15 0c-.484.115-.717.726-.432 1.13a.951.951 0 0 0 .277.248c.153.08.228.085 1.713.096 1.793.014 1.914.001 2.146-.231.399-.399.212-1.098-.33-1.235-.208-.052-3.16-.059-3.374-.008M7.56 15.53c-.166.035-.272.129-1.332 1.184-.634.63-1.186 1.2-1.227 1.266a.73.73 0 0 0 .114.905c.244.244.613.29.905.112.066-.04.635-.591 1.265-1.225 1.082-1.087 1.148-1.163 1.186-1.343.071-.341-.063-.669-.333-.814a.75.75 0 0 0-.578-.085m8.534-.011c-.423.099-.656.475-.565.91.038.18.104.256 1.186 1.343.63.634 1.199 1.185 1.265 1.225.654.397 1.414-.363 1.017-1.017-.04-.066-.591-.635-1.225-1.265-.947-.943-1.177-1.151-1.292-1.173a11.46 11.46 0 0 0-.2-.04.555.555 0 0 0-.186.017m-4.279 1.758a.8.8 0 0 0-.462.354l-.093.149v3.44l.093.149c.357.574 1.223.443 1.363-.207.057-.268.058-3.072.001-3.321a.747.747 0 0 0-.902-.564" fill-rule="evenodd"></path></svg>