<svg xmlns="http://www.w3.org/2000/svg" data-name="Layer 3" viewBox="0 0 24 24">
											<path d="M11.68 2.267c-3.425.192-6.065 3.083-5.906 6.467.013.29.036.611.05.715.023.163.016.193-.049.216-.041.015-.258.113-.482.217-1.614.753-2.879 2.297-3.33 4.068a8.21 8.21 0 0 0-.203 1.57c0 1.602.706 3.276 1.863 4.42a6.433 6.433 0 0 0 3.437 1.726c.623.096 1.697.057 2.314-.084a6.072 6.072 0 0 0 2.246-1.004c.198-.141.372-.257.387-.258.015 0 .078.042.14.094.062.052.248.185.413.295 1.552 1.037 3.581 1.312 5.374.727 1.599-.522 2.893-1.644 3.668-3.182.228-.452.44-1.073.544-1.594.102-.515.102-1.728 0-2.28a6.298 6.298 0 0 0-2.696-4.083c-.319-.212-.909-.52-1.172-.612-.126-.044-.128-.048-.103-.235.366-2.787-.966-5.326-3.446-6.567-.85-.425-2.068-.671-3.049-.616m1.129 1.554c.959.168 1.828.62 2.529 1.316a4.753 4.753 0 0 1 1.325 2.443c.083.39.095 1.358.021 1.74a4.836 4.836 0 0 1-1.346 2.543 4.716 4.716 0 0 1-5.433.891 4.874 4.874 0 0 1-2.176-2.174 6.399 6.399 0 0 1-.413-1.26c-.074-.382-.062-1.35.021-1.74a4.753 4.753 0 0 1 1.325-2.443 4.774 4.774 0 0 1 2.479-1.311 6.09 6.09 0 0 1 1.668-.005M6.408 11.27c.046.105.171.331.278.502.738 1.192 1.888 2.133 3.165 2.588.743.264 1.35.366 2.229.374l.62.006.026.2c.081.611-.003 1.383-.223 2.041-.256.764-.591 1.31-1.139 1.856-1.432 1.426-3.555 1.806-5.359.96-1.803-.844-2.908-2.749-2.723-4.694.161-1.7 1.109-3.095 2.628-3.864.17-.086.334-.158.362-.158.029-.001.09.084.136.189m11.724-.011c2.294 1.156 3.262 3.937 2.172 6.242a4.466 4.466 0 0 1-.943 1.344c-.613.621-1.317 1.025-2.193 1.261-.519.139-1.369.173-1.928.077a4.697 4.697 0 0 1-1.866-.726 3.96 3.96 0 0 1-.334-.235c0-.008.11-.189.244-.403a6.547 6.547 0 0 0 .861-2.199c.077-.392.101-1.492.044-1.993-.03-.259-.027-.275.053-.296.128-.033.705-.318.978-.482.983-.59 1.966-1.66 2.372-2.579.046-.105.107-.19.136-.189.028 0 .211.08.404.178" fill-rule="evenodd"></path>
										</svg>