<svg xmlns="http://www.w3.org/2000/svg" viewBox="0 0 24 24">
											<path d="M4.72 3.286a1.931 1.931 0 0 0-.92.458c-.383.358-.599.985-.516 1.499.066.412 3.864 13.271 4.004 13.557a1.7 1.7 0 0 0 1.76.92c.37-.052.752-.236.991-.477.099-.101.592-.773 1.095-1.493.502-.721.924-1.31.938-1.31.013 0 .925.897 2.026 1.994 1.793 1.786 2.029 2.007 2.262 2.119a1.805 1.805 0 0 0 1.548.009c.245-.114.384-.239 1.4-1.254 1.015-1.016 1.14-1.155 1.254-1.4a1.805 1.805 0 0 0-.009-1.548c-.112-.233-.333-.469-2.119-2.262-1.097-1.101-1.994-2.013-1.994-2.026 0-.014.589-.436 1.31-.938.72-.503 1.392-.996 1.493-1.095.812-.803.579-2.252-.443-2.751-.464-.227-13.662-4.082-13.84-4.043l-.24.041m6.884 3.394c3.59 1.056 6.553 1.941 6.584 1.967.034.028.051.102.044.189-.012.139-.05.169-1.712 1.332-.935.654-1.742 1.229-1.792 1.277a.948.948 0 0 0-.156.21c-.076.147-.083.49-.013.627.027.054 1.092 1.142 2.365 2.419 2.021 2.025 2.316 2.336 2.316 2.44 0 .101-.141.259-.99 1.109-.85.85-1.006.99-1.109.99-.104 0-.414-.294-2.46-2.337-1.67-1.668-2.375-2.347-2.461-2.369a.85.85 0 0 0-.605.062c-.17.096-.127.038-1.727 2.324-.884 1.263-.914 1.3-1.052 1.312-.089.008-.161-.01-.191-.046C8.588 18.117 4.76 5.114 4.76 4.99c0-.114.113-.23.224-.23.051 0 3.03.864 6.62 1.92" fill-rule="evenodd"></path>
										</svg>