<svg xmlns="http://www.w3.org/2000/svg" width="35" height="35" viewBox="0 0 35 35">
                        <path d="M10.3115 6.49558L9.51214 5.2727L10.918 4.46312L11.5746 5.76721L10.3115 6.49558ZM17.4951 4.36481V2.90527L15.8765 2.99366L16.0364 4.44459L17.4951 4.36481ZM14.4535 4.71823L14.1166 3.29725L12.5594 3.75908L13.0534 5.13304L14.4535 4.71823ZM20.645 3.24591L19.0422 2.98648L18.8895 4.43741L20.3311 4.67113L20.645 3.24591ZM5.39875 12.332L4.05419 11.7576L3.49904 13.2812L4.89918 13.7031L5.39875 12.332ZM6.9246 9.68099L5.75128 8.81159L4.85782 10.1642L6.1209 10.8981L6.9246 9.68099ZM4.53093 15.2653L3.09073 15.0187L2.90527 16.6277L4.36399 16.7133L4.53093 15.2653ZM9.02118 7.45192L8.07926 6.33732L6.89876 7.44762L7.95785 8.45236L9.02118 7.45192ZM29.5071 12.1382L30.8416 11.5424L30.0967 10.1015L28.8363 10.8426L29.5071 12.1382ZM23.8622 4.35907L22.3621 3.73481L21.8768 5.11164L23.2241 5.67321L23.8622 4.35907ZM30.6347 18.1086L32.0947 18.1742L32.0804 16.5565L30.6219 16.6491L30.6347 18.1086ZM30.4219 15.0571L31.8578 14.7877L31.4695 13.2128L30.0723 13.6404L30.4219 15.0571ZM29.0974 8.6249L28.0412 7.39491L26.9864 8.4054L27.9385 9.51282L29.0974 8.6249ZM26.7296 6.18769L25.4179 5.23421L24.6244 6.45996L25.8061 7.31801L26.7296 6.18769ZM24.8285 28.4061L25.6434 29.6177L26.9379 28.6399L25.9932 27.5268L24.8285 28.4061ZM19.1306 30.5341L19.3104 31.9836L20.9092 31.6943L20.5695 30.2747L19.1306 30.5341ZM22.1052 29.8058L22.6177 31.1726L24.1047 30.5198L23.4424 29.2186L22.1052 29.8058ZM27.1534 26.4165L28.2268 27.4086L29.2602 26.16L28.0854 25.2934L27.1534 26.4165ZM27.7259 17.5C27.7259 23.1412 23.1442 27.7163 17.4951 27.7163C11.8458 27.7163 7.26414 23.1412 7.26414 17.5C7.26414 11.8588 11.8458 7.28369 17.4951 7.28369C23.1442 7.28369 27.7259 11.8588 27.7259 17.5ZM26.2643 17.5C26.2643 12.6712 22.3305 8.74316 17.4951 8.74316C12.6595 8.74316 8.72573 12.6712 8.72573 17.5C8.72573 22.3288 12.6595 26.2569 17.4951 26.2569C22.3305 26.2569 26.2643 22.3288 26.2643 17.5ZM30.1407 21.1259L31.5466 21.5279L31.9063 19.9458L30.4648 19.7034L30.1407 21.1259ZM28.959 23.9465L30.2321 24.6634L30.9501 23.2096L29.6041 22.6381L28.959 23.9465ZM4.90909 21.3283L3.51046 21.753L4.06854 23.2752L5.4116 22.698L4.90909 21.3283ZM6.9246 27.5781L8.10783 28.6869L9.04682 27.5682L7.98068 26.5705L6.9246 27.5781ZM15.9121 32.0107L17.495 32.0947V30.6353L16.0691 30.5583L15.9121 32.0107ZM4.3668 18.3181L2.90808 18.4079L3.09647 20.017L4.53674 19.7676L4.3668 18.3181ZM6.13669 24.1289L4.87491 24.8672L5.77274 26.2184L6.94456 25.3448L6.13669 24.1289ZM9.54208 29.7473L10.9495 30.5526L11.6061 29.2484L10.3385 28.523L9.54208 29.7473ZM12.5938 31.2538L14.1509 31.7113L14.4849 30.2903L13.0832 29.8784L12.5938 31.2538Z"></path>
                    </svg>