<svg xmlns="http://www.w3.org/2000/svg" width="128" height="128" viewBox="0 0 128 128" fill="none">
											<path d="M116.627 101.688L99.2097 70.0115C104.87 61.406 107.22 51.0416 105.827 40.837C104.434 30.6312 99.3894 21.2763 91.6299 14.5043C83.869 7.73115 73.9186 4 63.6174 4C53.317 4 43.3665 7.73115 35.6049 14.5043C27.8451 21.2763 22.8004 30.631 21.4074 40.837C20.013 51.0419 22.3646 61.4063 28.025 70.0115L10.5892 101.688C10.1888 102.411 9.98603 103.226 10.0007 104.053C10.0155 104.879 10.2477 105.687 10.6732 106.395C11.0704 107.121 11.662 107.721 12.3828 108.125C13.1036 108.531 13.9242 108.725 14.7501 108.688L30.3124 108.57L38.5408 121.783C39.4003 123.162 40.9081 123.999 42.5326 124H42.664C44.3325 123.954 45.8509 123.028 46.6568 121.566L63.6074 90.7484L80.5537 121.548C81.3586 123.009 82.878 123.935 84.5455 123.981H84.6769C86.3013 123.98 87.81 123.143 88.6697 121.764L96.8981 108.551L112.46 108.669H112.459C114.113 108.636 115.643 107.784 116.542 106.395C116.967 105.687 117.199 104.879 117.214 104.053C117.229 103.226 117.026 102.411 116.626 101.688L116.627 101.688ZM63.609 13.4862C72.4111 13.4862 80.8517 16.983 87.0751 23.2066C93.2984 29.4302 96.7955 37.8719 96.7955 46.6727C96.7955 55.4748 93.2987 63.9154 87.0751 70.1398C80.8515 76.3634 72.4109 79.8592 63.609 79.8592C54.8072 79.8592 46.3663 76.3634 40.143 70.1398C33.9194 63.9151 30.4225 55.4745 30.4225 46.6727C30.432 37.8748 33.932 29.4396 40.1535 23.2171C46.3749 16.9957 54.8101 13.4967 63.609 13.4862V13.4862ZM42.2855 109.986L36.91 101.357H36.9089C36.0347 99.9766 34.5143 99.1402 32.8803 99.1402L22.7122 99.2159L34.5279 77.7366C40.0515 82.9313 46.8645 86.5532 54.2606 88.2293L42.2855 109.986ZM94.3402 99.1591H94.3391C92.7084 99.1717 91.1933 100.005 90.3105 101.376L84.9339 109.967L72.9586 88.2094V88.2105C80.3547 86.5346 87.1676 82.9128 92.6913 77.7178L104.507 99.1971L94.3402 99.1591ZM46.4656 64.707C46.3111 66.3619 47.0413 67.9758 48.3863 68.953C49.7312 69.9302 51.4912 70.1246 53.018 69.4658L63.6094 64.8991L74.2009 69.4658C75.7276 70.1246 77.4877 69.9302 78.8326 68.953C80.1776 67.9758 80.9078 66.3619 80.7534 64.707L79.6805 53.2024L87.2878 44.5452H87.2868C88.3848 43.298 88.7431 41.5643 88.2303 39.9829C87.7176 38.4026 86.4084 37.2099 84.7881 36.8443L73.5379 34.3163L67.6581 24.3836C66.746 23.0439 65.2309 22.2412 63.6095 22.2412C61.9881 22.2412 60.4731 23.0439 59.561 24.3836L53.6822 34.3026L42.432 36.8306H42.431C40.8107 37.1952 39.5014 38.3889 38.9887 39.9692C38.476 41.5495 38.8343 43.2831 39.9323 44.5315L47.5385 53.2021L46.4656 64.707ZM57.7252 43.0766V43.0776C58.9892 42.7939 60.0809 42.0016 60.7429 40.8879L63.6093 36.0114L66.4756 40.8499C67.1376 41.9637 68.2293 42.756 69.4934 43.0397L74.9824 44.2732L71.2679 48.5098V48.5088C70.4126 49.4817 69.9944 50.7636 70.1142 52.054L70.6364 57.6514L65.4584 55.4249H65.4595C64.269 54.9111 62.9209 54.9111 61.7305 55.4249L56.5524 57.6514L57.0746 52.054H57.0757C57.1955 50.7637 56.7783 49.4818 55.922 48.5088L52.2075 44.2722L57.7252 43.0766Z" fill="currentColor"></path>
										</svg>