<svg xmlns="http://www.w3.org/2000/svg" viewBox="0 0 24 24">
										<path d="M7.533 2.282c-2.527.207-4.649 2.073-5.15 4.529-.124.602-.142 1.271-.142 5.189s.018 4.587.142 5.189c.445 2.183 2.245 3.983 4.428 4.428.602.124 1.271.142 5.189.142s4.587-.018 5.189-.141c2.179-.445 3.984-2.25 4.429-4.429.123-.602.141-1.271.141-5.189s-.018-4.587-.141-5.189c-.292-1.427-1.211-2.78-2.438-3.589-.858-.566-1.705-.854-2.771-.942-.546-.045-8.323-.044-8.876.002m9.487 1.583c.808.237 1.442.601 1.978 1.137.551.552.878 1.122 1.134 1.978.082.273.084.362.098 3.778l.013 3.498-.86-.849c-.723-.714-.9-.869-1.112-.968a1.84 1.84 0 0 0-1.544.002c-.218.101-.394.257-1.24 1.096l-.987.979-1.981-1.976c-1.799-1.794-2.005-1.987-2.24-2.097a1.838 1.838 0 0 0-1.558 0c-.238.112-.459.32-2.612 2.469L3.757 15.26l.013-4c.014-3.987.014-4.001.102-4.307a4.441 4.441 0 0 1 1.13-1.951A4.397 4.397 0 0 1 7.4 3.786c.055-.009 2.179-.013 4.72-.01 4.531.007 4.625.009 4.9.089m-2.824 3.736c-.633.109-.829.943-.311 1.318a.751.751 0 0 0 1.103-.254c.098-.188.086-.541-.024-.719a.745.745 0 0 0-.768-.345m-2.337 6.397c1.232 1.231 2.292 2.257 2.354 2.28.144.054.43.054.574 0 .062-.024.671-.6 1.354-1.28 1.073-1.07 1.257-1.238 1.36-1.238.104 0 .295.175 1.431 1.312l1.312 1.312-.026.178a4.346 4.346 0 0 1-1.22 2.436c-.554.553-1.206.921-2.038 1.15-.243.067-.568.072-4.96.072s-4.717-.005-4.96-.072c-1.402-.386-2.455-1.286-2.965-2.535l-.159-.389 2.732-2.732c2.391-2.391 2.747-2.732 2.851-2.732.104 0 .404.285 2.36 2.238" fill-rule="evenodd"></path>
									</svg>