<svg xmlns="http://www.w3.org/2000/svg" viewBox="0 0 24 24">
											<path d="M11.66 1.276a.734.734 0 0 0-.398.413c-.097.232-.087 1.433.014 1.651.283.614 1.165.614 1.448 0 .063-.136.074-.263.074-.84s-.011-.704-.074-.84a.799.799 0 0 0-1.064-.384M4.701 4.149c-.135.035-.344.197-.447.348a.872.872 0 0 0-.094.687c.065.199.908 1.072 1.14 1.18a.847.847 0 0 0 .895-.136c.224-.206.305-.605.183-.899-.08-.195-.91-1.035-1.118-1.132a.924.924 0 0 0-.559-.048m14.039.045c-.21.102-1.039.942-1.118 1.135-.122.294-.041.693.183.899a.847.847 0 0 0 .895.136c.232-.108 1.075-.981 1.14-1.18a.838.838 0 0 0-.34-.932.838.838 0 0 0-.76-.058m-7.287 1.528a6.256 6.256 0 0 0-3.908 1.823 6.296 6.296 0 0 0 0 8.91 6.303 6.303 0 0 0 8.284.553c3.023-2.309 3.318-6.771.626-9.463-1.079-1.079-2.422-1.697-3.966-1.825-.511-.042-.503-.042-1.036.002m1.319 1.658a4.666 4.666 0 0 1 2.629 1.404 4.673 4.673 0 0 1 0 6.432c-2.251 2.371-6.145 1.779-7.612-1.156A4.765 4.765 0 0 1 7.32 12c0-2.28 1.62-4.209 3.877-4.618a5.652 5.652 0 0 1 1.575-.002M1.66 11.276c-.626.289-.608 1.196.029 1.462.232.097 1.433.087 1.651-.014.614-.283.614-1.165 0-1.448-.136-.063-.263-.074-.84-.074s-.704.011-.84.074m19 0c-.626.289-.608 1.196.029 1.462.232.097 1.433.087 1.651-.014.487-.224.614-.88.248-1.279-.191-.207-.351-.243-1.088-.243-.577 0-.704.011-.84.074M5.3 17.636c-.232.108-1.075.981-1.14 1.18-.198.612.412 1.222 1.024 1.024.199-.065 1.072-.908 1.18-1.14.139-.3.064-.714-.169-.928a.847.847 0 0 0-.895-.136m12.72 0a.796.796 0 0 0-.383 1.064c.097.208.937 1.038 1.132 1.118.223.093.433.077.675-.049a.797.797 0 0 0 .374-1c-.08-.195-.91-1.035-1.118-1.132a.843.843 0 0 0-.68-.001m-6.36 2.64a.734.734 0 0 0-.398.413c-.097.232-.087 1.433.014 1.651.224.487.88.614 1.279.248.207-.191.243-.351.243-1.088 0-.577-.011-.704-.074-.84a.799.799 0 0 0-1.064-.384" fill-rule="evenodd"></path>
										</svg>