<svg xmlns="http://www.w3.org/2000/svg" width="41" height="41" viewBox="0 0 41 41" fill="none">
                                    <g clip-path="url(#clip0_4265_12877)">
                                        <path d="M25.0123 40.3987C25.3277 40.5655 25.7102 40.5455 26.0075 40.3443L27.8819 39.0736L29.7564 40.3443C30.0519 40.5455 30.4344 40.5655 30.7516 40.3987C31.067 40.2301 31.2646 39.902 31.2646 39.5431V35.0257C31.6417 35.1054 32.0351 35.0021 32.3251 34.7483C32.3523 34.7175 32.3759 34.6867 32.3976 34.654H38.5161C38.6448 34.654 38.7681 34.6033 38.8587 34.5126C38.9494 34.422 39.0001 34.2987 39.0001 34.1718V1.29861C39.0001 1.17171 38.9493 1.04844 38.8587 0.957803C38.7681 0.867165 38.6448 0.816406 38.5161 0.816406H11.4458C11.317 0.816406 11.1938 0.867165 11.1031 0.957803C11.0125 1.04844 10.9617 1.17171 10.9617 1.29861V13.1813C10.9636 13.252 10.9799 13.3209 11.0107 13.3843H6.61085C4.47719 13.3861 2.74595 15.1173 2.74417 17.251V21.6017C2.74598 23.8895 3.98956 25.9942 5.99089 27.1002C4.38476 27.4628 2.95084 28.3583 1.92132 29.6436C0.891811 30.9289 0.329698 32.5259 0.327881 34.1718V38.0385C0.327881 38.1672 0.378639 38.2905 0.469277 38.3811C0.559915 38.4718 0.683185 38.5225 0.810083 38.5225H11.4459C11.7124 38.5225 11.93 38.305 11.93 38.0385C11.93 37.772 11.7124 37.5545 11.4459 37.5545H1.29427V34.1718C1.29971 31.2623 3.29923 28.7351 6.12917 28.0626V28.3708C6.12917 30.2398 7.64287 31.7535 9.51186 31.7535C11.3808 31.7535 12.8964 30.2398 12.8964 28.3708V28.0626C15.7262 28.7352 17.7255 31.2622 17.7313 34.1718V37.5563H14.8308V37.5545C14.5625 37.5545 14.3468 37.772 14.3468 38.0385C14.3468 38.305 14.5625 38.5225 14.8308 38.5225H18.2135C18.3422 38.5225 18.4655 38.4718 18.5561 38.3811C18.6467 38.2905 18.6975 38.1672 18.6975 38.0385V34.654H20.7568C21.0233 34.654 21.2409 34.4383 21.2409 34.1718C21.2409 33.9035 21.0233 33.6878 20.7568 33.6878H18.6721C18.567 32.1288 17.9615 30.6459 16.9445 29.4585C15.9294 28.2729 14.5571 27.4445 13.0324 27.1001C15.0355 25.9942 16.2791 23.8896 16.2809 21.6015V17.2508C16.2773 15.1171 14.5479 13.3859 12.4124 13.3841H11.8813C11.9121 13.3207 11.9284 13.2518 11.9302 13.1811V1.78261H38.0345V33.6878H32.6033C32.5743 33.4612 32.5308 33.2365 32.4764 33.0135C32.3894 32.7397 32.3549 32.4515 32.3731 32.1633C32.558 31.9639 32.7773 31.7953 33.0202 31.6702C33.5568 31.3348 34.1659 30.9541 34.1659 30.3033C34.1659 29.6526 33.5568 29.2719 33.0184 28.9383H33.0202C32.7773 28.8114 32.558 28.6446 32.3731 28.4434C32.3549 28.157 32.3894 27.8688 32.4764 27.595C32.6142 26.9895 32.7701 26.3061 32.3259 25.8602C31.8818 25.4142 31.1966 25.5719 30.5911 25.7097C30.3174 25.7967 30.0291 25.8312 29.7427 25.813C29.5415 25.6281 29.3747 25.4088 29.2478 25.1659C28.9124 24.6293 28.5335 24.0202 27.8828 24.0202C27.232 24.0202 26.8513 24.6293 26.5177 25.1677L26.5159 25.1659C26.3908 25.4088 26.2222 25.6281 26.0228 25.813C25.7346 25.8312 25.4464 25.7967 25.1726 25.7097C24.5672 25.5719 23.8837 25.416 23.4378 25.8602C22.9937 26.3043 23.1496 26.9895 23.2873 27.595C23.3743 27.8687 23.4106 28.157 23.3907 28.4434C23.2058 28.6446 22.9864 28.8114 22.7453 28.9383C22.2069 29.2737 21.5978 29.6526 21.5978 30.3033C21.5978 30.9541 22.2069 31.3348 22.7453 31.6684V31.6702C22.9864 31.7953 23.2057 31.9639 23.3907 32.1633C23.4106 32.4515 23.3743 32.7397 23.2873 33.0135C23.1496 33.6189 22.9937 34.3024 23.4378 34.7483C23.7278 35.0021 24.1212 35.1054 24.4983 35.0257V39.5431C24.4983 39.902 24.6959 40.2301 25.0131 40.3987L25.0123 40.3987ZM11.9296 28.3706C11.9296 29.7048 10.8474 30.7871 9.51133 30.7871C8.17711 30.7871 7.09489 29.7048 7.09489 28.3706V27.912C7.25441 27.8993 7.41575 27.8866 7.57892 27.8866H11.4456C11.6088 27.8866 11.7683 27.8993 11.9296 27.912L11.9296 28.3706ZM15.3123 17.251V21.6017C15.3105 24.5384 12.9303 26.9169 9.99552 26.9204H9.02931C6.09256 26.9168 3.71409 24.5384 3.71061 21.6017V20.8766H6.61109C6.81956 20.8766 7.00447 20.7442 7.06971 20.5466L7.78938 18.3876L10.1369 20.7352C10.2276 20.8258 10.3509 20.8766 10.4796 20.8766H13.8641H13.8623C14.1306 20.8766 14.3463 20.6608 14.3463 20.3943C14.3463 20.1261 14.1306 19.9103 13.8623 19.9103H10.679L7.91992 17.1512C7.80208 17.0334 7.62987 16.9844 7.46671 17.0225C7.30355 17.0606 7.17303 17.182 7.12046 17.3398L6.26301 19.9103H3.71059V17.2509C3.7124 15.6502 5.01035 14.3523 6.61106 14.3504H12.412C14.0145 14.3523 15.3107 15.6502 15.3125 17.2509L15.3123 17.251ZM28.1525 38.0888C27.9893 37.9782 27.7736 37.9782 27.6105 38.0888L25.4641 39.5426V34.8346C25.6454 34.7802 25.8357 34.7675 26.0225 34.7947C26.2219 34.9796 26.3905 35.1989 26.5155 35.4401C26.8509 35.9785 27.2316 36.5876 27.8824 36.5876C28.5332 36.5876 28.9139 35.9785 29.2474 35.4401C29.3743 35.199 29.5411 34.9796 29.7423 34.7947C29.9291 34.7675 30.1176 34.7802 30.2989 34.8346V39.5426L28.1525 38.0888ZM24.1282 34.0699C24.1082 33.7852 24.1445 33.5006 24.2297 33.2287C24.391 32.7665 24.4092 32.2661 24.2841 31.793C24.043 31.3833 23.6859 31.0534 23.2562 30.8485C23.0387 30.7144 22.5891 30.4334 22.5638 30.3047C22.5873 30.1742 23.0387 29.8932 23.2562 29.7591C23.6859 29.5542 24.043 29.2243 24.2841 28.8128C24.4092 28.3414 24.391 27.8411 24.2297 27.3788C24.1481 27.1106 24.1101 26.8296 24.1155 26.5486C24.4001 26.5304 24.6847 26.5667 24.9566 26.6519C25.4189 26.8132 25.9192 26.8314 26.3924 26.7063C26.8021 26.4652 27.132 26.1062 27.3368 25.6784C27.471 25.4609 27.752 25.0113 27.8807 24.986C28.0112 25.0095 28.2922 25.4609 28.4263 25.6784C28.6311 26.1062 28.9611 26.4652 29.3726 26.7063C29.8439 26.8314 30.3442 26.8132 30.8065 26.6519C31.0748 26.5721 31.3558 26.5323 31.6368 26.5359C31.6549 26.8205 31.6205 27.1069 31.5334 27.3788C31.3721 27.8411 31.354 28.3415 31.4791 28.8128C31.7202 29.2243 32.0791 29.5542 32.5069 29.7591C32.7226 29.8932 33.1704 30.1724 33.1994 30.3047C33.1722 30.437 32.7226 30.7162 32.5069 30.8503V30.8485C32.0791 31.0534 31.7202 31.3833 31.4791 31.793C31.354 32.2661 31.3721 32.7665 31.5334 33.2287C31.6096 33.4898 31.6495 33.7617 31.6513 34.0354C31.6495 34.0427 31.6477 34.0517 31.6458 34.059C31.363 34.0753 31.0784 34.0408 30.8065 33.9556C30.3443 33.7943 29.8439 33.7762 29.3726 33.9013C28.9611 34.1424 28.6312 34.4995 28.4263 34.9291C28.2922 35.1466 28.0112 35.5962 27.8825 35.6216C27.752 35.598 27.471 35.1466 27.3369 34.9291C27.132 34.4995 26.8021 34.1423 26.3924 33.9013C26.2329 33.8378 26.0606 33.807 25.8903 33.8106C25.5748 33.8251 25.2612 33.8741 24.9566 33.9556C24.6884 34.0372 24.4092 34.0771 24.1282 34.0699Z" fill="#566064"></path>
                                        <path d="M21.1128 17.2515C20.8463 17.2515 20.6306 17.469 20.6306 17.7355C20.6306 18.002 20.8463 18.2195 21.1128 18.2195H33.6827C33.9492 18.2195 34.1649 18.002 34.1649 17.7355C34.1649 17.469 33.9492 17.2515 33.6827 17.2515H21.1128Z" fill="#566064"></path>
                                        <path d="M21.1128 22.0864H33.6827C33.9492 22.0864 34.1649 21.8706 34.1649 21.6023C34.1649 21.3359 33.9492 21.1201 33.6827 21.1201H21.1128C20.8463 21.1201 20.6306 21.3358 20.6306 21.6023C20.6306 21.8706 20.8463 22.0864 21.1128 22.0864Z" fill="#566064"></path>
                                        <path d="M34.6492 13.8693V5.65017C34.6492 5.52328 34.5984 5.4 34.5078 5.30937C34.4172 5.21873 34.2939 5.16797 34.1652 5.16797H15.7963C15.6676 5.16797 15.5443 5.21873 15.4537 5.30937C15.363 5.4 15.3123 5.52327 15.3123 5.65017V13.8693C15.3123 13.9962 15.363 14.1195 15.4537 14.2102C15.5443 14.3008 15.6676 14.3516 15.7963 14.3516H34.1652C34.2939 14.3516 34.4172 14.3008 34.5078 14.2102C34.5984 14.1195 34.6492 13.9962 34.6492 13.8693ZM33.683 13.3853H16.2801V6.13413H33.683V13.3853Z" fill="#566064"></path>
                                    </g>
                                    <defs>
                                        <clipPath id="clip0_4265_12877">
                                        <rect width="40" height="40" fill="white" transform="translate(0.0800781 0.640137)"></rect>
                                        </clipPath>
                                    </defs>
                                </svg>