<svg xmlns="http://www.w3.org/2000/svg" viewBox="0 0 24 24" style="enable-background:new 0 0 24 24" xml:space="preserve"><path d="M6.18 2.837c-.222.104-2.794 2.688-2.879 2.892a.661.661 0 0 0 .016.571c.104.222 2.688 2.794 2.892 2.879a.802.802 0 0 0 .805-.131c.113-.1.224-.366.225-.539.002-.282-.101-.427-.77-1.099l-.648-.65h12.358l-.648.65c-.669.672-.772.817-.77 1.099.001.173.112.439.225.539a.802.802 0 0 0 .805.131c.204-.085 2.788-2.657 2.892-2.879a.864.864 0 0 0 .075-.3.864.864 0 0 0-.075-.3c-.104-.222-2.688-2.794-2.892-2.879a.802.802 0 0 0-.805.131c-.113.1-.224.366-.225.539-.002.282.101.427.77 1.099l.648.65H5.821l.648-.65c.669-.672.772-.817.77-1.099-.001-.173-.112-.439-.225-.539a.792.792 0 0 0-.834-.115m-2.365 9.44a.8.8 0 0 0-.462.354l-.093.149v8.44l.093.149c.357.574 1.223.443 1.363-.207.059-.277.06-8.064.001-8.321a.747.747 0 0 0-.902-.564m8 0a.8.8 0 0 0-.462.354l-.093.149v8.44l.093.149c.357.574 1.223.443 1.363-.207.059-.277.06-8.064.001-8.321a.747.747 0 0 0-.902-.564m8 0a.8.8 0 0 0-.462.354l-.093.149v8.44l.093.149c.357.574 1.223.443 1.363-.207.059-.277.06-8.064.001-8.321a.747.747 0 0 0-.902-.564m-12 2a.8.8 0 0 0-.462.354l-.093.149v6.44l.093.149c.357.574 1.223.443 1.363-.207.059-.275.06-6.065.001-6.321a.747.747 0 0 0-.902-.564m8 0a.8.8 0 0 0-.462.354l-.093.149v6.44l.093.149c.357.574 1.223.443 1.363-.207.059-.275.06-6.065.001-6.321a.747.747 0 0 0-.902-.564" fill-rule="evenodd"></path></svg>