<svg xmlns="http://www.w3.org/2000/svg" data-name="Layer 3" viewBox="0 0 24 24">
											<path d="M2.815 3.278c-.484.115-.717.726-.432 1.13a.951.951 0 0 0 .277.248c.159.083.191.084 4.219.095 2.865.008 4.122-.002 4.274-.034.749-.155.777-1.244.036-1.431-.21-.052-8.155-.06-8.374-.008M17.9 3.259a1.795 1.795 0 0 1-.16.04c-.162.036-2.795 2.648-2.904 2.881a.907.907 0 0 0-.074.32c0 .18.108.446.224.548a.918.918 0 0 0 .514.192c.273 0 .424-.107 1.09-.771l.65-.648v12.358l-.65-.648c-.672-.669-.817-.772-1.099-.77-.173.001-.439.112-.539.225a.794.794 0 0 0-.116.834c.05.106.535.617 1.429 1.506 1.283 1.274 1.365 1.347 1.545 1.385a.935.935 0 0 0 .38 0c.18-.038.262-.111 1.545-1.385.894-.889 1.379-1.4 1.429-1.506a.794.794 0 0 0-.116-.834c-.1-.113-.366-.224-.539-.225-.282-.002-.427.101-1.099.77l-.65.648V5.821l.65.648c.666.664.817.771 1.09.771.16 0 .398-.089.514-.192.116-.102.224-.368.224-.548 0-.309-.099-.43-1.484-1.805-.734-.729-1.37-1.344-1.414-1.366-.091-.045-.38-.092-.44-.07M2.815 7.278c-.484.115-.717.726-.432 1.13a.951.951 0 0 0 .277.248c.158.083.205.084 3.218.095C8.02 8.759 9 8.749 9.151 8.718c.751-.156.78-1.245.038-1.432-.21-.052-6.156-.06-6.374-.008m0 4c-.484.115-.717.726-.432 1.13a.951.951 0 0 0 .277.248c.159.083.191.084 4.219.095 2.865.008 4.122-.002 4.274-.034.749-.155.777-1.244.036-1.431-.21-.052-8.155-.06-8.374-.008m0 4c-.484.115-.717.726-.432 1.13a.951.951 0 0 0 .277.248c.158.083.205.084 3.218.095 2.142.008 3.122-.002 3.273-.033.751-.156.78-1.245.038-1.432-.21-.052-6.156-.06-6.374-.008m0 4c-.484.115-.717.726-.432 1.13a.951.951 0 0 0 .277.248c.159.083.191.084 4.219.095 2.865.008 4.122-.002 4.274-.034.749-.155.777-1.244.036-1.431-.21-.052-8.155-.06-8.374-.008" fill-rule="evenodd"></path>
										</svg>